<?xml version="1.0" encoding="UTF-8"?>
<svg version="1.1" xmlns="http://www.w3.org/2000/svg" width="32" height="32">
<path d="M0 0 C10.56 0 21.12 0 32 0 C32 8.58 32 17.16 32 26 C21.44 26 10.88 26 0 26 C0 17.42 0 8.84 0 0 Z " fill="#403436" transform="translate(0,3)"/>
<path d="M0 0 C9.9 0 19.8 0 30 0 C30 7.59 30 15.18 30 23 C24.72 23 19.44 23 14 23 C15.65 21.68 17.3 20.36 19 19 C20.85752025 16.69201843 21.76478414 14.76688353 23 12 C22.33149548 9.3259819 21.30322229 8.30322229 19.375 6.375 C18.92125 5.92125 18.4675 5.4675 18 5 C18 4.34 18 3.68 18 3 C10.5374985 2.32023055 10.5374985 2.32023055 3.8125 5.0625 C1.17824765 9.33180554 1.51583861 12.63971321 2.5 17.4375 C2.665 17.953125 2.83 18.46875 3 19 C3.66 19 4.32 19 5 19 C5 19.66 5 20.32 5 21 C6.32 21.66 7.64 22.32 9 23 C6.03 23 3.06 23 0 23 C0 15.41 0 7.82 0 0 Z " fill="#8E744E" transform="translate(1,4)"/>
<path d="M0 0 C0.99 0 1.98 0 3 0 C3 7.26 3 14.52 3 22 C-2.28 22 -7.56 22 -13 22 C-11.35 20.68 -9.7 19.36 -8 18 C-5.8708136 15.14080683 -4.22243986 12.57572671 -2.9375 9.25 C-2 7 -2 7 1 5 C0.67 3.35 0.34 1.7 0 0 Z " fill="#E3B97D" transform="translate(28,5)"/>
<path d="M0 0 C2.97 0 5.94 0 9 0 C8.21625 0.598125 7.4325 1.19625 6.625 1.8125 C3.85425677 3.91085249 3.85425677 3.91085249 2 7 C1.79006028 10.84889483 1.81994818 14.31233808 3 18 C3.66 18 4.32 18 5 18 C5 18.66 5 19.32 5 20 C6.32 20.66 7.64 21.32 9 22 C6.03 22 3.06 22 0 22 C0 14.74 0 7.48 0 0 Z " fill="#F5C081" transform="translate(1,5)"/>
<path d="M0 0 C3.63 0 7.26 0 11 0 C10.67 1.65 10.34 3.3 10 5 C9.66055205 6.99897128 9.32578384 8.99875639 9 11 C8.5978125 10.1028125 8.5978125 10.1028125 8.1875 9.1875 C7.1106021 6.95672092 7.1106021 6.95672092 5.375 5.375 C4.92125 4.92125 4.4675 4.4675 4 4 C4 3.34 4 2.68 4 2 C2.68 1.34 1.36 0.68 0 0 Z " fill="#F6C988" transform="translate(15,5)"/>
<path d="M0 0 C1.2065625 0.0309375 1.2065625 0.0309375 2.4375 0.0625 C2.81968767 1.71864657 3.15145102 3.38707024 3.4375 5.0625 C2.4375 6.0625 2.4375 6.0625 -0.125 6.125 C-1.3315625 6.0940625 -1.3315625 6.0940625 -2.5625 6.0625 C-2.94468767 4.40635343 -3.27645102 2.73792976 -3.5625 1.0625 C-2.5625 0.0625 -2.5625 0.0625 0 0 Z " fill="#EDD9B8" transform="translate(12.5625,12.9375)"/>
<path d="M0 0 C1.67542976 0.28604898 3.34385343 0.61781233 5 1 C4.6875 2.9375 4.6875 2.9375 4 5 C3.01 5.33 2.02 5.66 1 6 C0.67 6.66 0.34 7.32 0 8 C-0.38063221 5.6739143 -0.71269945 3.33944736 -1 1 C-0.67 0.67 -0.34 0.34 0 0 Z " fill="#47403C" transform="translate(25,6)"/>
<path d="M0 0 C2.64 0 5.28 0 8 0 C6.8553125 0.8971875 6.8553125 0.8971875 5.6875 1.8125 C3.6516425 3.46959332 1.8021721 5.10297674 0 7 C0 4.69 0 2.38 0 0 Z " fill="#F6CA88" transform="translate(2,5)"/>
</svg>
